<?xml version="1.0" encoding="UTF-8" standalone="no"?>
<!DOCTYPE svg PUBLIC "-//W3C//DTD SVG 1.1//EN" "http://www.w3.org/Graphics/SVG/1.1/DTD/svg11.dtd">
<svg width="100%" height="100%" viewBox="0 0 827 827" version="1.1" xmlns="http://www.w3.org/2000/svg" xmlns:xlink="http://www.w3.org/1999/xlink" xml:space="preserve" xmlns:serif="http://www.serif.com/" style="fill-rule:evenodd;clip-rule:evenodd;stroke-linejoin:round;stroke-miterlimit:2;">
    <g transform="matrix(1,0,0,1,-1062,0)">
        <g id="Logo14" transform="matrix(1,0,0,1,-0.992126,0)">
            <rect x="1062.992" y="0" width="826.772" height="826.772" style="fill:none;"/>
            <g transform="matrix(0.741106,0,0,0.741106,-35692.405481,-3879.327146)">
                <path d="M50030.307,5794.031C50030.053,5793.46 50026.304,5784.87 50025.556,5780.931C50025.529,5780.788 50014.275,5748.781 50017.769,5712.664C50022.428,5664.494 50046.562,5545.023 50057.442,5536.252C50085.803,5513.389 50219.746,5509.523 50231.273,5546.781C50233.693,5554.604 50272.566,5690.676 50260.193,5757.987C50251.019,5807.894 50229.251,5825.19 50224.244,5831.763C50212.088,5847.721 50171.12,5882.597 50166.631,5886.412C50164.572,5888.162 50163.777,5886.936 50159.885,5889.904C50157.898,5891.42 50157.865,5909.142 50157.16,5912.976C50154.059,5929.834 50149.448,6060.083 50159.057,6062.6C50165.887,6064.388 50170.258,6062.196 50192.868,6068.189C50199.131,6069.849 50266.961,6087.828 50244.408,6130.659C50213.001,6190.306 49995.573,6174.733 50034.171,6099.519C50050.794,6067.126 50119.897,6064.536 50122.085,6060.401C50125.575,6053.805 50126.733,5913.317 50120.532,5910.23C50120.099,5910.014 50119.144,5896.996 50120.407,5889.904C50120.626,5888.673 50153.866,5894.124 50163.195,5886.786C50167.747,5883.205 50169.171,5873.127 50165.385,5868.26C50164.202,5866.739 50152.164,5865.779 50152.025,5865.77C50126.996,5864.276 50127.192,5864.388 50102.266,5861.774C50057.906,5851.421 50062.516,5842.758 50053.275,5829.417C50044.915,5817.347 50044.6,5817.846 50036.576,5805.542C50035.362,5803.681 50031.286,5796.231 50030.307,5794.031ZM50167.221,5869.928C50173.326,5874.187 50173.826,5870.022 50189.412,5857.009C50254.772,5802.44 50276.72,5752.68 50232.761,5578.25C50228.642,5561.904 50229.678,5552.589 50220.503,5558.232C50188.146,5578.132 50090.67,5575.339 50063.916,5559.383C50063.296,5559.013 50055.996,5554.659 50055.378,5556.447C50046.459,5582.243 50032.632,5656.055 50030.996,5664.787C50029.075,5675.041 49999.4,5780.211 50077.835,5845.927C50086.248,5852.976 50097.078,5854.972 50090.657,5849.184C50090.619,5849.149 50008.035,5793.957 50033.896,5683.123C50042.543,5646.064 50241.495,5647.825 50247,5683.286C50267.501,5815.337 50190.941,5838.371 50167.221,5869.928ZM50140.754,5525.382C50133.992,5525.657 50058.457,5528.731 50058.873,5546.639C50059.479,5572.704 50233.196,5572.109 50222.705,5544.336C50216.366,5527.554 50147.48,5525.575 50140.754,5525.382Z" style="fill:rgb(140,123,107);"/>
            </g>
            <g transform="matrix(0.741106,0,0,0.741106,-35692.68746,-3878.81558)">
                <path d="M50041.719,6119.282C50039.03,6123.811 50038.4,6123.831 50039.756,6128.973C50071.913,6172.432 50205.893,6172.121 50238.807,6128.993C50240.047,6124.279 50239.107,6124.256 50235.25,6121.419C50238.097,6116.652 50248.412,6104.239 50224.71,6088.271C50203.459,6073.953 50159.602,6066.629 50158.009,6071.627C50155.178,6080.512 50177.04,6101.911 50165.768,6099.379C50138.786,6093.317 50147.913,5951.068 50148.592,5933.341C50149.369,5913.033 50154.429,5891.673 50150.52,5891.386C50131.566,5889.992 50128.415,5890.795 50128.59,5893.025C50132.659,5944.793 50134.458,6059.978 50123.783,6085.245C50116.949,6101.419 50106.591,6101.041 50109.896,6095.163C50122.9,6072.038 50120.148,6069.991 50118.03,6069.698C50116.285,6069.457 50073.871,6073.639 50050.417,6091.148C50031.375,6105.364 50041.165,6117.976 50041.719,6119.282Z" style="fill:white;"/>
            </g>
            <g transform="matrix(0.741106,0,0,0.741106,-35692.405481,-3879.327146)">
                <path d="M50163.711,5864.141C50166.741,5861.974 50166.739,5862.011 50166.983,5861.801C50224.764,5812.249 50251.467,5783.582 50243.703,5698.882C50243.213,5693.532 50240.752,5696.049 50236.038,5698.539C50196.771,5719.281 50083.458,5719.582 50042.719,5697.206C50036.036,5693.536 50036.586,5698.104 50035.552,5705.779C50024.227,5789.823 50084.583,5836.931 50086.996,5839.19C50108.708,5859.52 50110.939,5857.621 50152.1,5858.741C50158.777,5858.923 50157.792,5861.206 50163.711,5864.141Z" style="fill:white;"/>
            </g>
            <g transform="matrix(0.741106,0,0,0.741106,-35692.405481,-3879.327146)">
                <path d="M50106.579,5706.555C50201.866,5714.671 50248.896,5692.589 50240.064,5681.403C50216.62,5651.707 50026.479,5658.102 50040.177,5687.953C50046.243,5701.17 50101.084,5706.065 50106.579,5706.555Z" style="fill:white;"/>
            </g>
        </g>
    </g>
</svg>
